<svg width="43" height="33" viewBox="0 0 43 33" fill="none" xmlns="http://www.w3.org/2000/svg">
<rect x="42.5" y="32.5" width="42" height="32" rx="4.5" transform="rotate(-180 42.5 32.5)" fill="white" stroke="#A52754"/>
<path d="M11.6464 16.6464C11.4512 16.8417 11.4512 17.1583 11.6464 17.3536L14.8284 20.5355C15.0237 20.7308 15.3403 20.7308 15.5355 20.5355C15.7308 20.3403 15.7308 20.0237 15.5355 19.8284L12.7071 17L15.5355 14.1716C15.7308 13.9763 15.7308 13.6597 15.5355 13.4645C15.3403 13.2692 15.0237 13.2692 14.8284 13.4645L11.6464 16.6464ZM31 16.5L12 16.5L12 17.5L31 17.5L31 16.5Z" fill="#259A46"/>
</svg>
