<svg width="55" height="80" viewBox="0 0 55 80" fill="none" xmlns="http://www.w3.org/2000/svg">
<rect x="53.5978" y="78.4403" width="52.3082" height="77.9392" rx="19.5" transform="rotate(179.421 53.5978 78.4403)" stroke="#A52754"/>
<path d="M27.0364 55.6124C27.2336 55.8057 27.5502 55.8025 27.7435 55.6053L30.8932 52.3913C31.0864 52.1941 31.0832 51.8775 30.886 51.6842C30.6888 51.4909 30.3722 51.4941 30.1789 51.6914L27.3792 54.5482L24.5224 51.7485C24.3252 51.5552 24.0086 51.5584 23.8153 51.7557C23.622 51.9529 23.6252 52.2694 23.8224 52.4627L27.0364 55.6124ZM26.5297 19.9473L26.8864 55.2603L27.8863 55.2502L27.5296 19.9371L26.5297 19.9473Z" fill="#A52754"/>
</svg>
