<svg width="43" height="43" viewBox="0 0 43 43" fill="none" xmlns="http://www.w3.org/2000/svg">
<g clip-path="url(#clip0)">
<path d="M12.891 5.16836C6.81356 11.2457 6.20269 20.461 10.5048 27.151L1.10501 36.5506C-0.368337 38.0241 -0.368337 40.4216 1.10501 41.8951C2.57836 43.3684 4.97599 43.3686 6.4495 41.8951L15.8492 32.4954C22.5381 36.7968 31.7523 36.1876 37.8306 30.1092C44.7211 23.2188 44.7248 12.0626 37.8319 5.16962C30.9401 -1.72213 19.7854 -1.72322 12.891 5.16836ZM4.66812 40.1137C4.17692 40.6049 3.37776 40.6049 2.88665 40.1137C2.39545 39.6225 2.39545 38.8233 2.88665 38.3321L12.0318 29.1868C12.3062 29.5026 12.5923 29.8105 12.891 30.1091C13.1897 30.4078 13.4975 30.694 13.8133 30.9683L4.66812 40.1137ZM36.0491 28.3277C30.1416 34.2352 20.5808 34.236 14.6725 28.3277C8.76526 22.4205 8.76408 12.8583 14.6723 6.95008C20.5807 1.0441 30.1421 1.04284 36.0504 6.95109C41.9561 12.857 41.9574 22.4195 36.0491 28.3277Z" fill="#C2C2C2"/>
<path d="M16.4533 8.73224C11.5317 13.6568 11.53 21.62 16.4538 26.5466C21.3783 31.4682 29.3416 31.4699 34.2682 26.5461C39.1897 21.6216 39.1914 13.6583 34.2677 8.73174C29.3432 3.81008 21.38 3.80849 16.4533 8.73224ZM32.4868 24.7646C28.5474 28.7017 22.1763 28.7038 18.2354 24.7651C14.298 20.8255 14.2962 14.4546 18.2348 10.5137C22.1744 6.57639 28.5453 6.57454 32.4863 10.5132C36.4233 14.4525 36.4254 20.8237 32.4868 24.7646Z" fill="#C2C2C2"/>
<path d="M29.126 14.6119L24.1644 19.5734L21.276 16.6851C20.7841 16.1931 19.9865 16.1931 19.4945 16.6851C19.0026 17.177 19.0026 17.9746 19.4945 18.4666L23.2737 22.2457C23.5196 22.4916 23.842 22.6147 24.1643 22.6147C24.4867 22.6147 24.8091 22.4917 25.055 22.2457L30.9073 16.3934C31.3992 15.9015 31.3992 15.1039 30.9073 14.6119C30.4155 14.12 29.6179 14.12 29.126 14.6119Z" fill="#C2C2C2"/>
</g>
<defs>
<clipPath id="clip0">
<rect width="43" height="43" fill="white"/>
</clipPath>
</defs>
</svg>
