<svg width="81" height="67" viewBox="0 0 81 67" fill="none" xmlns="http://www.w3.org/2000/svg">
<mask id="mask0" mask-type="alpha" maskUnits="userSpaceOnUse" x="0" y="0" width="81" height="67">
<rect width="81" height="67" fill="white"/>
</mask>
<g mask="url(#mask0)">
<path d="M21.6678 61.504C19.9398 61.504 17.7318 60.928 15.0438 59.776C12.3558 58.432 10.0518 55.552 8.1318 51.136C6.4038 46.528 5.5398 41.632 5.5398 36.448C5.5398 31.264 7.1718 26.08 10.4358 20.896C16.3878 11.488 24.6438 6.59198 35.2038 6.20799L35.7798 8.79999C31.5558 10.336 28.1958 12.352 25.6998 14.848C23.3958 17.344 22.0518 20.032 21.6678 22.912C21.2838 28.864 23.2038 34.24 27.4278 39.04C32.8038 44.992 34.5318 50.272 32.6118 54.88C30.6918 59.296 27.0438 61.504 21.6678 61.504ZM76.0998 8.79999C70.5318 10.72 66.6918 13.408 64.5798 16.864C62.6598 20.128 61.6998 22.624 61.6998 24.352C61.6998 29.728 63.7158 34.624 67.7478 39.04C73.1238 44.992 74.8518 50.272 72.9318 54.88C71.0118 59.296 67.4598 61.504 62.2758 61.504C56.1318 61.504 51.8118 58.624 49.3158 52.864C47.0118 47.104 45.8598 41.632 45.8598 36.448C45.8598 31.264 47.4918 26.08 50.7558 20.896C56.7078 11.488 64.9638 6.59198 75.5238 6.20799L76.0998 8.79999Z" fill="black" fill-opacity="0.19"/>
</g>
</svg>
