<svg width="33" height="33" viewBox="0 0 33 33" fill="none" xmlns="http://www.w3.org/2000/svg">
<g clip-path="url(#clip0)">
<path d="M16.5006 0C7.38821 0 0.000976562 7.38745 0.000976562 16.4998C0.000976562 25.612 7.38821 33 16.5006 33C25.613 33 33.0008 25.612 33.0008 16.4998C33.0008 7.38745 25.613 0 16.5006 0ZM16.5009 5.79552L26.2649 11.8841H6.73689L16.5009 5.79552ZM26.3866 21.6067H26.3856C26.3856 22.5833 25.5942 23.3747 24.6177 23.3747H8.38416C7.40757 23.3747 6.61622 22.5832 6.61622 21.6067V12.2715C6.61622 12.1682 6.62678 12.0678 6.64394 11.9691L15.9729 17.7863C15.9844 17.7934 15.9966 17.7983 16.0083 17.8049C16.0207 17.8117 16.0332 17.8183 16.0457 17.8246C16.1116 17.8586 16.1795 17.886 16.2489 17.9039C16.2561 17.9059 16.2632 17.9067 16.2704 17.9084C16.3465 17.9263 16.4236 17.9375 16.5006 17.9375H16.5011C16.5017 17.9375 16.5022 17.9375 16.5022 17.9375C16.5792 17.9375 16.6564 17.9267 16.7325 17.9084C16.7396 17.9066 16.7468 17.9059 16.7539 17.9039C16.8232 17.886 16.8909 17.8586 16.9571 17.8246C16.9696 17.8183 16.9822 17.8117 16.9945 17.8049C17.0062 17.7983 17.0185 17.7934 17.0299 17.7863L26.3589 11.9691C26.376 12.0678 26.3866 12.168 26.3866 12.2715V21.6067Z" fill="white"/>
</g>
<defs>
<clipPath id="clip0">
<rect width="33" height="33" fill="white"/>
</clipPath>
</defs>
</svg>
