<svg width="63" height="63" viewBox="0 0 63 63" fill="none" xmlns="http://www.w3.org/2000/svg">
<circle cx="31.5" cy="31.5" r="31.5" fill="#EBEBEB"/>
<path d="M42.75 20.375H20.25C19.0091 20.375 18 21.3841 18 22.625V38.375C18 39.6159 19.0091 40.625 20.25 40.625H42.75C43.9909 40.625 45 39.6159 45 38.375V22.625C45 21.3841 43.9909 20.375 42.75 20.375ZM20.25 21.5H42.75C42.8329 21.5 42.906 21.5302 42.9838 21.5473C41.0358 23.3301 34.5767 29.2391 32.3163 31.2756C32.1395 31.4349 31.8544 31.625 31.5001 31.625C31.1457 31.625 30.8606 31.4349 30.6832 31.2751C28.4231 29.2389 21.9636 23.3295 20.0159 21.5474C20.0939 21.5303 20.1671 21.5 20.25 21.5ZM19.125 38.375V22.625C19.125 22.5148 19.1582 22.4148 19.1879 22.3141C20.6789 23.6787 25.1857 27.8016 28.1081 30.4591C25.1952 32.9612 20.6872 37.2352 19.1844 38.6682C19.1579 38.5725 19.125 38.479 19.125 38.375ZM42.75 39.5H20.25C20.1602 39.5 20.0803 39.4687 19.9964 39.4487C21.5492 37.9683 26.086 33.6697 28.9476 31.2216C29.3206 31.56 29.6614 31.8686 29.93 32.1106C30.3937 32.5292 30.9364 32.75 31.5 32.75C32.0636 32.75 32.6063 32.5292 33.0694 32.1111C33.3381 31.869 33.6791 31.5602 34.0524 31.2216C36.9142 33.6694 41.4503 37.9677 43.0036 39.4487C42.9197 39.4687 42.8399 39.5 42.75 39.5ZM43.875 38.375C43.875 38.4789 43.8421 38.5725 43.8156 38.6682C42.3123 37.2344 37.8048 32.9609 34.892 30.4591C37.8144 27.8017 42.3206 23.6791 43.8121 22.314C43.8418 22.4147 43.875 22.5148 43.875 22.625V38.375Z" fill="#A52754"/>
</svg>
