<svg width="63" height="63" viewBox="0 0 63 63" fill="none" xmlns="http://www.w3.org/2000/svg">
<circle cx="31.5" cy="31.5" r="31.5" fill="#EBEBEB"/>
<path d="M41.986 24.7111C41.8614 24.2442 41.6084 23.7467 41.4212 23.3111C39.1817 17.9289 34.2883 16 30.3371 16C25.0477 16 19.2221 19.5468 18.4443 26.8575V28.3511C18.4443 28.4134 18.4658 28.9733 18.4963 29.2534C18.9323 32.7375 21.6815 36.4404 23.7347 39.9245C25.9437 43.6573 28.2358 47.3294 30.5067 50.9999C31.907 48.6046 33.3023 46.1778 34.6706 43.8445C35.0436 43.1597 35.4765 42.4754 35.8498 41.8218C36.0987 41.3866 36.5741 40.9514 36.7912 40.5465C39.0001 36.5023 42.5556 32.4268 42.5556 28.4133V26.7645C42.5557 26.3294 42.0163 24.805 41.986 24.7111ZM30.4339 32.2091C28.8791 32.2091 27.1773 31.4316 26.3372 29.2846C26.2121 28.9428 26.2222 28.2579 26.2222 28.1952V27.2307C26.2222 24.4936 28.5462 23.2489 30.568 23.2489C33.0571 23.2489 34.9821 25.2403 34.9821 27.7294C34.9821 30.2184 32.923 32.2091 30.4339 32.2091Z" fill="#A52754"/>
</svg>
