<svg width="63" height="63" viewBox="0 0 63 63" fill="none" xmlns="http://www.w3.org/2000/svg">
<circle cx="31.5" cy="31.5" r="31.5" fill="#EBEBEB"/>
<g clip-path="url(#clip0)">
<path d="M37.5482 35.1061C37.0159 34.5519 36.3739 34.2555 35.6934 34.2555C35.0184 34.2555 34.3709 34.5464 33.8167 35.1006L32.0826 36.8292C31.94 36.7523 31.7973 36.681 31.6601 36.6097C31.4626 36.5109 31.276 36.4176 31.1169 36.3188C29.4926 35.2872 28.0164 33.9427 26.6007 32.2032C25.9147 31.3362 25.4538 30.6064 25.119 29.8655C25.569 29.454 25.9861 29.026 26.3921 28.6144C26.5458 28.4608 26.6994 28.3016 26.8531 28.148C28.0055 26.9956 28.0055 25.503 26.8531 24.3506L25.355 22.8525C25.1849 22.6824 25.0093 22.5068 24.8447 22.3312C24.5154 21.991 24.1697 21.6398 23.813 21.3106C23.2807 20.7838 22.6442 20.5039 21.9747 20.5039C21.3052 20.5039 20.6577 20.7838 20.109 21.3106C20.1035 21.3161 20.1035 21.3161 20.098 21.3215L18.2323 23.2037C17.5299 23.9061 17.1293 24.7622 17.0415 25.7554C16.9098 27.3578 17.3817 28.8504 17.7439 29.8271C18.6328 32.2252 19.9608 34.4476 21.9418 36.8292C24.3453 39.6991 27.2372 41.9654 30.5407 43.5623C31.8028 44.1604 33.4874 44.8683 35.3696 44.989C35.4849 44.9945 35.6056 45 35.7154 45C36.983 45 38.0475 44.5446 38.8816 43.6391C38.8871 43.6281 38.8981 43.6227 38.9036 43.6117C39.1889 43.266 39.5182 42.9532 39.8639 42.6184C40.0999 42.3935 40.3413 42.1575 40.5773 41.9106C41.1205 41.3454 41.4059 40.6869 41.4059 40.0119C41.4059 39.3314 41.115 38.6784 40.5608 38.1297L37.5482 35.1061ZM39.5127 40.8844C39.5072 40.8844 39.5072 40.8899 39.5127 40.8844C39.2987 41.1149 39.0792 41.3234 38.8432 41.5539C38.4865 41.8941 38.1244 42.2508 37.7841 42.6514C37.2299 43.244 36.5769 43.5239 35.7208 43.5239C35.6385 43.5239 35.5507 43.5239 35.4684 43.5184C33.8386 43.4141 32.3241 42.7776 31.1882 42.2343C28.0823 40.7308 25.355 38.5961 23.0887 35.8908C21.2174 33.6354 19.9663 31.5502 19.1377 29.3113C18.6274 27.9449 18.4408 26.8804 18.5231 25.8761C18.578 25.2341 18.8249 24.7018 19.2804 24.2464L21.1516 22.3751C21.4205 22.1227 21.7058 21.9855 21.9857 21.9855C22.3314 21.9855 22.6113 22.194 22.7869 22.3696C22.7923 22.3751 22.7978 22.3806 22.8033 22.3861C23.1381 22.6989 23.4563 23.0227 23.7911 23.3684C23.9612 23.544 24.1368 23.7196 24.3124 23.9007L25.8105 25.3987C26.3921 25.9804 26.3921 26.5182 25.8105 27.0999C25.6513 27.259 25.4977 27.4181 25.3385 27.5718C24.8776 28.0437 24.4386 28.4827 23.9612 28.9107C23.9502 28.9217 23.9392 28.9272 23.9337 28.9382C23.4618 29.4101 23.5496 29.871 23.6484 30.1838C23.6539 30.2003 23.6594 30.2167 23.6649 30.2332C24.0545 31.1771 24.6032 32.066 25.4373 33.1251L25.4428 33.1306C26.9573 34.9963 28.5542 36.4505 30.3157 37.5645C30.5407 37.7072 30.7711 37.8224 30.9906 37.9321C31.1882 38.0309 31.3748 38.1242 31.5339 38.223C31.5558 38.234 31.5778 38.2504 31.5997 38.2614C31.7863 38.3547 31.9619 38.3986 32.143 38.3986C32.5985 38.3986 32.8838 38.1132 32.9771 38.0199L34.8538 36.1432C35.0404 35.9566 35.3367 35.7317 35.6824 35.7317C36.0227 35.7317 36.3025 35.9457 36.4726 36.1322C36.4781 36.1377 36.4781 36.1377 36.4836 36.1432L39.5072 39.1668C40.0724 39.7265 40.0724 40.3027 39.5127 40.8844Z" fill="#A52754"/>
<path d="M31.051 25.1847C32.4887 25.4261 33.7947 26.1066 34.8374 27.1492C35.88 28.1918 36.5549 29.4978 36.8019 30.9356C36.8622 31.2977 37.175 31.5502 37.5317 31.5502C37.5756 31.5502 37.614 31.5447 37.6579 31.5392C38.064 31.4733 38.3329 31.0892 38.267 30.6831C37.9707 28.9436 37.1476 27.3577 35.891 26.1011C34.6343 24.8445 33.0484 24.0213 31.3089 23.725C30.9028 23.6592 30.5242 23.928 30.4529 24.3286C30.3815 24.7292 30.6449 25.1188 31.051 25.1847Z" fill="#A52754"/>
<path d="M42.9698 30.4691C42.4814 27.6047 41.1315 24.9981 39.0572 22.9239C36.983 20.8496 34.3764 19.4997 31.512 19.0113C31.1114 18.94 30.7327 19.2143 30.6614 19.6149C30.5956 20.021 30.8644 20.3996 31.2705 20.471C33.8277 20.9045 36.1599 22.1172 38.0146 23.9665C39.8694 25.8213 41.0766 28.1534 41.5102 30.7106C41.5705 31.0728 41.8833 31.3252 42.24 31.3252C42.2839 31.3252 42.3223 31.3197 42.3662 31.3142C42.7668 31.2539 43.0412 30.8697 42.9698 30.4691Z" fill="#A52754"/>
</g>
<defs>
<clipPath id="clip0">
<rect width="26" height="26" fill="white" transform="translate(17 19)"/>
</clipPath>
</defs>
</svg>
