<svg width="35" height="35" viewBox="0 0 35 35" fill="none" xmlns="http://www.w3.org/2000/svg">
<path d="M35 17.5C35 7.8352 27.1647 0 17.5 0C7.8352 0 0 7.8352 0 17.5C0 27.1647 7.8352 35 17.5 35C27.1647 35 35 27.1647 35 17.5ZM8.07705 23.7188C8.37935 23.7571 8.68795 23.7777 8.9998 23.7777C10.8119 23.7809 12.4791 23.127 13.8012 22.0293C12.1084 21.9896 10.6814 20.7932 10.1898 19.1513C10.4253 19.2006 10.6687 19.2293 10.9169 19.231C11.2701 19.2325 11.6105 19.1847 11.9351 19.0925C10.166 18.7012 8.83281 17.0228 8.83281 15.023C8.83281 15.0055 8.83281 14.988 8.83281 14.9705C9.35461 15.2854 9.94961 15.4763 10.5844 15.505C9.54871 14.7556 8.86621 13.4829 8.86621 12.0511C8.86621 11.2938 9.05711 10.5874 9.38961 9.98289C11.2971 12.5045 14.1464 14.1781 17.3585 14.3865C17.2917 14.0858 17.2582 13.7724 17.2582 13.4526C17.2582 11.1919 18.9892 9.38789 21.1242 9.42289C22.2362 9.44199 23.2416 9.95264 23.9465 10.7545C24.8278 10.5858 25.6551 10.2613 26.4012 9.80789C26.1133 10.7513 25.4992 11.5372 24.7006 12.0288C25.4833 11.9413 26.2278 11.7345 26.9215 11.4211C26.4029 12.2277 25.7474 12.9324 24.9917 13.4956C24.9997 13.6706 25.0028 13.8456 25.0028 14.0206C25.0028 19.3884 21.113 25.5786 14.0017 25.5754C11.8204 25.577 9.7873 24.893 8.07705 23.7188Z" fill="white"/>
</svg>
