<svg width="89" height="88" viewBox="0 0 89 88" fill="none" xmlns="http://www.w3.org/2000/svg">
<ellipse cx="44.5" cy="44" rx="44.5" ry="44" fill="#1E2057"/>
<path d="M35.6289 54H34.6797V41.2207C34.668 39.3105 34.2461 37.8926 33.4141 36.9668C32.5938 36.0293 31.2812 35.5605 29.4766 35.5605C27.3906 35.5605 25.6855 36.4805 24.3613 38.3203C23.5762 39.4219 23.0547 40.6406 22.7969 41.9766V54H21.8301V34.9805H22.7969V39.4805C23.4414 37.9336 24.3613 36.7383 25.5566 35.8945C26.752 35.0508 28.0762 34.6289 29.5293 34.6289C31.123 34.6289 32.4238 34.9805 33.4316 35.6836C34.4512 36.3867 35.1191 37.5352 35.4355 39.1289C35.998 37.7578 36.9121 36.668 38.1777 35.8594C39.4434 35.0391 40.8613 34.6289 42.4316 34.6289C44.4824 34.6289 46.0059 35.209 47.002 36.3691C48.0098 37.5293 48.5195 39.2695 48.5312 41.5898V54H47.582V41.6602C47.582 39.5742 47.1602 38.0332 46.3164 37.0371C45.4844 36.0293 44.1719 35.5371 42.3789 35.5605C40.0703 35.5957 38.2422 36.5156 36.8945 38.3203C36.1211 39.3633 35.6992 40.3711 35.6289 41.3438V54ZM66.0215 49.3418C66.0215 47.0332 64.0527 45.4629 60.1152 44.6309C57.748 44.127 56.1016 43.4824 55.1758 42.6973C54.25 41.9004 53.7871 40.8105 53.7871 39.4277C53.7871 38.0332 54.373 36.8848 55.5449 35.9824C56.7285 35.0801 58.2637 34.6289 60.1504 34.6289C62.2012 34.6289 63.8477 35.1211 65.0898 36.1055C66.332 37.0781 66.9531 38.3965 66.9531 40.0605H65.9863C65.9863 38.7832 65.4473 37.7168 64.3691 36.8613C63.291 36.0059 61.8848 35.5781 60.1504 35.5781C58.4863 35.5781 57.168 35.9414 56.1953 36.668C55.2227 37.3945 54.7363 38.3027 54.7363 39.3926C54.7363 40.248 54.918 40.9219 55.2812 41.4141C55.6445 41.8945 56.2363 42.334 57.0566 42.7324C57.877 43.1191 59.0723 43.4941 60.6426 43.8574C62.2129 44.2207 63.4551 44.6484 64.3691 45.1406C65.2832 45.6328 65.9453 46.2188 66.3555 46.8984C66.7656 47.5664 66.9707 48.3867 66.9707 49.3594C66.9707 50.8594 66.3555 52.0664 65.125 52.9805C63.8945 53.8945 62.2832 54.3516 60.291 54.3516C58.1582 54.3516 56.4355 53.8711 55.123 52.9102C53.8223 51.9375 53.1719 50.6895 53.1719 49.166H54.1211C54.2148 50.502 54.8008 51.5449 55.8789 52.2949C56.9688 53.0332 58.4395 53.4023 60.291 53.4023C61.9902 53.4023 63.3672 53.0098 64.4219 52.2246C65.4883 51.4277 66.0215 50.4668 66.0215 49.3418Z" fill="white"/>
</svg>
